<mxfile host="app.diagrams.net" modified="2024-02-19T02:13:29.863Z" agent="Mozilla/5.0 (Windows NT 10.0; Win64; x64) AppleWebKit/537.36 (KHTML, like Gecko) Chrome/121.0.0.0 Safari/537.36" etag="iwd7tZr5YgGn56uf4alN" version="23.1.5" type="device">
  <diagram name="Page-1" id="UMM78bcty8Yh2Ipk4xUr">
    <mxGraphModel dx="2359" dy="1921" grid="1" gridSize="11" guides="1" tooltips="1" connect="1" arrows="1" fold="1" page="1" pageScale="1" pageWidth="850" pageHeight="1100" math="0" shadow="0">
      <root>
        <mxCell id="0" />
        <mxCell id="1" parent="0" />
        <mxCell id="FPNfaOGOEIjZuPGmD0JC-1" value="" style="endArrow=none;dashed=1;html=1;strokeWidth=2;rounded=0;curved=1;strokeColor=#217893;" parent="1" edge="1">
          <mxGeometry width="50" height="50" relative="1" as="geometry">
            <mxPoint x="473" y="165" as="sourcePoint" />
            <mxPoint x="473" y="165" as="targetPoint" />
            <Array as="points">
              <mxPoint x="583" y="231" />
              <mxPoint x="638" y="275" />
              <mxPoint x="671" y="330" />
              <mxPoint x="693" y="396" />
              <mxPoint x="715" y="484" />
              <mxPoint x="682" y="572" />
              <mxPoint x="660" y="616" />
              <mxPoint x="561" y="704" />
              <mxPoint x="440" y="759" />
              <mxPoint x="286" y="770" />
              <mxPoint x="187" y="748" />
              <mxPoint x="88" y="704" />
              <mxPoint x="-22" y="605" />
              <mxPoint x="-55" y="473" />
              <mxPoint x="-33" y="264" />
              <mxPoint x="132" y="187" />
              <mxPoint x="308" y="143" />
            </Array>
          </mxGeometry>
        </mxCell>
        <mxCell id="FPNfaOGOEIjZuPGmD0JC-3" value="&lt;font style=&quot;font-size: 16px;&quot;&gt;Database&lt;/font&gt;" style="shape=cylinder3;whiteSpace=wrap;html=1;boundedLbl=1;backgroundOutline=1;size=15;fontSize=16;points=[[0,0,0,0,15],[0,0,0,0,30],[0,0,0,0,60],[0,0.5,0,0,0],[0,1,0,0,-15],[0.145,0,0,0,4.35],[0.145,1,0,0,-4.35],[0.5,0,0,0,0],[0.5,1,0,0,0],[0.855,0,0,0,4.35],[0.855,1,0,0,-4.35],[1,0,0,0,15],[1,0,0,0,30],[1,0,0,0,60],[1,0.5,0,0,0],[1,1,0,0,-15]];" parent="1" vertex="1">
          <mxGeometry x="220" y="385" width="209" height="99" as="geometry" />
        </mxCell>
        <mxCell id="FPNfaOGOEIjZuPGmD0JC-6" value="&lt;font style=&quot;font-size: 16px;&quot;&gt;Log In&lt;/font&gt;" style="ellipse;whiteSpace=wrap;html=1;strokeColor=#217893;" parent="1" vertex="1">
          <mxGeometry x="209" y="171.5" width="132" height="64.5" as="geometry" />
        </mxCell>
        <mxCell id="FPNfaOGOEIjZuPGmD0JC-30" value="&lt;font style=&quot;font-size: 16px;&quot;&gt;Register&lt;/font&gt;" style="ellipse;whiteSpace=wrap;html=1;strokeColor=#217893;" parent="1" vertex="1">
          <mxGeometry x="98" y="220" width="133" height="55" as="geometry" />
        </mxCell>
        <mxCell id="FPNfaOGOEIjZuPGmD0JC-32" value="" style="endArrow=classic;html=1;rounded=0;exitX=0.5;exitY=1;exitDx=0;exitDy=0;entryX=0.5;entryY=0;entryDx=0;entryDy=0;strokeColor=#e1955f;" parent="1" source="14" target="FPNfaOGOEIjZuPGmD0JC-30" edge="1">
          <mxGeometry width="50" height="50" relative="1" as="geometry">
            <mxPoint x="363" y="66" as="sourcePoint" />
            <mxPoint x="352" y="187" as="targetPoint" />
            <Array as="points" />
          </mxGeometry>
        </mxCell>
        <mxCell id="FPNfaOGOEIjZuPGmD0JC-34" value="" style="endArrow=classic;html=1;rounded=0;exitX=1;exitY=1;exitDx=0;exitDy=0;entryX=0.215;entryY=0.025;entryDx=0;entryDy=0;entryPerimeter=0;strokeColor=#e1955f;" parent="1" source="FPNfaOGOEIjZuPGmD0JC-30" target="FPNfaOGOEIjZuPGmD0JC-3" edge="1">
          <mxGeometry width="50" height="50" relative="1" as="geometry">
            <mxPoint x="374" y="297" as="sourcePoint" />
            <mxPoint x="476" y="412" as="targetPoint" />
            <Array as="points" />
          </mxGeometry>
        </mxCell>
        <mxCell id="FPNfaOGOEIjZuPGmD0JC-40" value="&lt;font style=&quot;font-size: 16px;&quot;&gt;List Item&lt;/font&gt;" style="ellipse;whiteSpace=wrap;html=1;strokeColor=#217893;" parent="1" vertex="1">
          <mxGeometry x="440" y="242" width="132" height="57" as="geometry" />
        </mxCell>
        <mxCell id="FPNfaOGOEIjZuPGmD0JC-41" value="" style="endArrow=classic;html=1;rounded=0;exitX=0.545;exitY=0.99;exitDx=0;exitDy=0;entryX=0.706;entryY=0.007;entryDx=0;entryDy=0;entryPerimeter=0;strokeColor=#e1955f;exitPerimeter=0;" parent="1" source="15" target="FPNfaOGOEIjZuPGmD0JC-40" edge="1">
          <mxGeometry width="50" height="50" relative="1" as="geometry">
            <mxPoint x="555" y="137" as="sourcePoint" />
            <mxPoint x="517" y="275" as="targetPoint" />
            <Array as="points" />
          </mxGeometry>
        </mxCell>
        <mxCell id="FPNfaOGOEIjZuPGmD0JC-43" value="" style="endArrow=classic;html=1;rounded=0;exitX=0.4;exitY=1.018;exitDx=0;exitDy=0;entryX=0.768;entryY=0.022;entryDx=0;entryDy=0;entryPerimeter=0;exitPerimeter=0;strokeColor=#e1955f;" parent="1" source="FPNfaOGOEIjZuPGmD0JC-40" target="FPNfaOGOEIjZuPGmD0JC-3" edge="1">
          <mxGeometry width="50" height="50" relative="1" as="geometry">
            <mxPoint x="525.05" y="307.47" as="sourcePoint" />
            <mxPoint x="362.99999999999983" y="384.9999999999998" as="targetPoint" />
            <Array as="points" />
          </mxGeometry>
        </mxCell>
        <mxCell id="FPNfaOGOEIjZuPGmD0JC-45" value="&lt;font style=&quot;font-size: 16px;&quot;&gt;Search For Item&lt;/font&gt;" style="ellipse;whiteSpace=wrap;html=1;strokeColor=#217893;" parent="1" vertex="1">
          <mxGeometry x="489" y="308" width="138" height="60" as="geometry" />
        </mxCell>
        <mxCell id="FPNfaOGOEIjZuPGmD0JC-46" value="" style="endArrow=classic;html=1;rounded=0;exitX=1;exitY=0;exitDx=0;exitDy=30;exitPerimeter=0;strokeColor=#e1955f;" parent="1" source="FPNfaOGOEIjZuPGmD0JC-3" target="FPNfaOGOEIjZuPGmD0JC-45" edge="1">
          <mxGeometry width="50" height="50" relative="1" as="geometry">
            <mxPoint x="440" y="434" as="sourcePoint" />
            <mxPoint x="879.9960000000001" y="395.9960000000001" as="targetPoint" />
            <Array as="points" />
          </mxGeometry>
        </mxCell>
        <mxCell id="FPNfaOGOEIjZuPGmD0JC-48" value="Item Search" style="rounded=0;whiteSpace=wrap;html=1;fontSize=16;labelBackgroundColor=none;strokeColor=#217893;fillColor=#2CA4C2;" parent="1" vertex="1">
          <mxGeometry x="649" y="176" width="165" height="60" as="geometry" />
        </mxCell>
        <mxCell id="FPNfaOGOEIjZuPGmD0JC-50" value="&lt;span style=&quot;font-size: 16px;&quot;&gt;Edit Item&lt;br&gt;&lt;/span&gt;" style="ellipse;whiteSpace=wrap;html=1;strokeColor=#217893;" parent="1" vertex="1">
          <mxGeometry x="550" y="451" width="132" height="55" as="geometry" />
        </mxCell>
        <mxCell id="FPNfaOGOEIjZuPGmD0JC-53" value="Item for Sale" style="rounded=0;whiteSpace=wrap;html=1;fontSize=16;labelBackgroundColor=none;strokeColor=#217893;fillColor=#2CA4C2;" parent="1" vertex="1">
          <mxGeometry x="748" y="590" width="121" height="55" as="geometry" />
        </mxCell>
        <mxCell id="FPNfaOGOEIjZuPGmD0JC-60" value="&lt;span style=&quot;font-size: 16px;&quot;&gt;View Rating&lt;br&gt;&lt;/span&gt;" style="ellipse;whiteSpace=wrap;html=1;strokeColor=#217893;" parent="1" vertex="1">
          <mxGeometry x="308" y="671" width="132" height="58.51" as="geometry" />
        </mxCell>
        <mxCell id="FPNfaOGOEIjZuPGmD0JC-61" value="&amp;nbsp;Item Rating" style="rounded=0;whiteSpace=wrap;html=1;fontSize=16;labelBackgroundColor=none;strokeColor=#217893;fillColor=#2CA4C2;" parent="1" vertex="1">
          <mxGeometry x="494.5" y="792" width="121" height="60" as="geometry" />
        </mxCell>
        <mxCell id="FPNfaOGOEIjZuPGmD0JC-62" value="" style="endArrow=classic;startArrow=classic;html=1;rounded=0;exitX=0.46;exitY=0.029;exitDx=0;exitDy=0;entryX=0.5;entryY=1;entryDx=0;entryDy=0;entryPerimeter=0;strokeColor=#e1955f;exitPerimeter=0;" parent="1" source="FPNfaOGOEIjZuPGmD0JC-60" target="FPNfaOGOEIjZuPGmD0JC-3" edge="1">
          <mxGeometry width="50" height="50" relative="1" as="geometry">
            <mxPoint x="374" y="496.29" as="sourcePoint" />
            <mxPoint x="320.69399999999996" y="484.00299999999976" as="targetPoint" />
          </mxGeometry>
        </mxCell>
        <mxCell id="FPNfaOGOEIjZuPGmD0JC-63" value="" style="endArrow=classic;startArrow=classic;html=1;rounded=0;exitX=0.5;exitY=0;exitDx=0;exitDy=0;entryX=0.5;entryY=1;entryDx=0;entryDy=0;strokeColor=#e1955f;" parent="1" source="FPNfaOGOEIjZuPGmD0JC-61" target="cPwut-dSBvQ5seL-pgIg-26" edge="1">
          <mxGeometry width="50" height="50" relative="1" as="geometry">
            <mxPoint x="550" y="749.29" as="sourcePoint" />
            <mxPoint x="407" y="660" as="targetPoint" />
          </mxGeometry>
        </mxCell>
        <mxCell id="FPNfaOGOEIjZuPGmD0JC-71" value="&lt;span style=&quot;font-size: 16px;&quot;&gt;Item Results&lt;/span&gt;" style="ellipse;whiteSpace=wrap;html=1;strokeColor=#217893;" parent="1" vertex="1">
          <mxGeometry x="87" y="627" width="122" height="55" as="geometry" />
        </mxCell>
        <mxCell id="FPNfaOGOEIjZuPGmD0JC-72" value="" style="endArrow=classic;html=1;rounded=0;entryX=0.5;entryY=0;entryDx=0;entryDy=0;exitX=0.145;exitY=1;exitDx=0;exitDy=-4.35;exitPerimeter=0;strokeColor=#e1955f;" parent="1" source="FPNfaOGOEIjZuPGmD0JC-3" target="FPNfaOGOEIjZuPGmD0JC-71" edge="1">
          <mxGeometry width="50" height="50" relative="1" as="geometry">
            <mxPoint x="129" y="722" as="sourcePoint" />
            <mxPoint x="219.9960000000001" y="618.9960000000001" as="targetPoint" />
            <Array as="points" />
          </mxGeometry>
        </mxCell>
        <mxCell id="FPNfaOGOEIjZuPGmD0JC-73" value="Item Results" style="rounded=0;whiteSpace=wrap;html=1;fontSize=16;strokeColor=#217893;fillColor=#2CA4C2;" parent="1" vertex="1">
          <mxGeometry x="-54" y="748" width="120" height="60" as="geometry" />
        </mxCell>
        <mxCell id="FPNfaOGOEIjZuPGmD0JC-74" value="" style="endArrow=classic;html=1;rounded=0;exitX=0;exitY=1;exitDx=0;exitDy=0;labelBackgroundColor=#fa8a3e;labelBorderColor=#fa8a3e;strokeColor=#e1955f;entryX=0.75;entryY=0;entryDx=0;entryDy=0;" parent="1" source="FPNfaOGOEIjZuPGmD0JC-71" target="FPNfaOGOEIjZuPGmD0JC-73" edge="1">
          <mxGeometry width="50" height="50" relative="1" as="geometry">
            <mxPoint x="121" y="581" as="sourcePoint" />
            <mxPoint x="-11" y="715" as="targetPoint" />
          </mxGeometry>
        </mxCell>
        <mxCell id="FPNfaOGOEIjZuPGmD0JC-79" value="&lt;span style=&quot;font-size: 16px;&quot;&gt;Auction Results&lt;/span&gt;" style="ellipse;whiteSpace=wrap;html=1;strokeColor=#217893;" parent="1" vertex="1">
          <mxGeometry x="175" y="671" width="122" height="60.24" as="geometry" />
        </mxCell>
        <mxCell id="FPNfaOGOEIjZuPGmD0JC-80" value="" style="endArrow=classic;html=1;rounded=0;entryX=0.5;entryY=0;entryDx=0;entryDy=0;exitX=0.34;exitY=1.005;exitDx=0;exitDy=0;exitPerimeter=0;strokeColor=#e1955f;" parent="1" source="FPNfaOGOEIjZuPGmD0JC-3" target="FPNfaOGOEIjZuPGmD0JC-79" edge="1">
          <mxGeometry width="50" height="50" relative="1" as="geometry">
            <mxPoint x="287.7930000000001" y="483.9999999999998" as="sourcePoint" />
            <mxPoint x="252.9960000000001" y="737.0260000000001" as="targetPoint" />
            <Array as="points" />
          </mxGeometry>
        </mxCell>
        <mxCell id="FPNfaOGOEIjZuPGmD0JC-81" value="Auction Results" style="rounded=0;whiteSpace=wrap;html=1;fontSize=16;strokeColor=#217893;fillColor=#2CA4C2;" parent="1" vertex="1">
          <mxGeometry x="132" y="814" width="120" height="60" as="geometry" />
        </mxCell>
        <mxCell id="FPNfaOGOEIjZuPGmD0JC-82" value="" style="endArrow=classic;html=1;rounded=0;entryX=0.5;entryY=0;entryDx=0;entryDy=0;exitX=0.5;exitY=1;exitDx=0;exitDy=0;labelBackgroundColor=#fa8a3e;labelBorderColor=#fa8a3e;strokeColor=#e1955f;" parent="1" source="FPNfaOGOEIjZuPGmD0JC-79" target="FPNfaOGOEIjZuPGmD0JC-81" edge="1">
          <mxGeometry width="50" height="50" relative="1" as="geometry">
            <mxPoint x="154" y="699.03" as="sourcePoint" />
            <mxPoint x="55" y="594.03" as="targetPoint" />
          </mxGeometry>
        </mxCell>
        <mxCell id="2" value="" style="endArrow=classic;html=1;rounded=0;exitX=0.5;exitY=1;exitDx=0;exitDy=0;entryX=0.5;entryY=0;entryDx=0;entryDy=0;fillColor=#171D05;strokeColor=#e1955f;" parent="1" source="cPwut-dSBvQ5seL-pgIg-24" target="FPNfaOGOEIjZuPGmD0JC-6" edge="1">
          <mxGeometry width="50" height="50" relative="1" as="geometry">
            <mxPoint x="38" y="159" as="sourcePoint" />
            <mxPoint x="110.10400000000027" y="284.13700000000017" as="targetPoint" />
            <Array as="points" />
          </mxGeometry>
        </mxCell>
        <mxCell id="3" value="" style="endArrow=classic;html=1;rounded=0;exitX=0.374;exitY=0.017;exitDx=0;exitDy=0;exitPerimeter=0;strokeColor=#e1955f;" parent="1" source="FPNfaOGOEIjZuPGmD0JC-3" target="FPNfaOGOEIjZuPGmD0JC-6" edge="1">
          <mxGeometry width="50" height="50" relative="1" as="geometry">
            <mxPoint x="220.00399999999962" y="416.41100000000023" as="sourcePoint" />
            <mxPoint x="143" y="341" as="targetPoint" />
            <Array as="points" />
          </mxGeometry>
        </mxCell>
        <mxCell id="10" value="&lt;span style=&quot;font-size: 16px;&quot;&gt;Category Report&lt;br&gt;&lt;/span&gt;" style="ellipse;whiteSpace=wrap;html=1;strokeColor=#217893;" parent="1" vertex="1">
          <mxGeometry x="22" y="275" width="132" height="55" as="geometry" />
        </mxCell>
        <mxCell id="11" value="" style="endArrow=classic;html=1;rounded=0;entryX=1;entryY=0.5;entryDx=0;entryDy=0;strokeColor=#e1955f;exitX=0.005;exitY=0.124;exitDx=0;exitDy=0;exitPerimeter=0;" parent="1" source="FPNfaOGOEIjZuPGmD0JC-3" target="10" edge="1">
          <mxGeometry width="50" height="50" relative="1" as="geometry">
            <mxPoint x="220" y="440" as="sourcePoint" />
            <mxPoint x="76.9960000000001" y="563.9960000000001" as="targetPoint" />
            <Array as="points" />
          </mxGeometry>
        </mxCell>
        <mxCell id="12" value="Auction Statistics Report" style="rounded=0;whiteSpace=wrap;html=1;fontSize=16;strokeColor=#217893;fillColor=#2CA4C2;" parent="1" vertex="1">
          <mxGeometry x="-253" y="484" width="120" height="60" as="geometry" />
        </mxCell>
        <mxCell id="13" value="" style="endArrow=classic;html=1;rounded=0;entryX=0.5;entryY=1;entryDx=0;entryDy=0;exitX=0;exitY=0;exitDx=0;exitDy=0;labelBackgroundColor=#fa8a3e;labelBorderColor=#fa8a3e;strokeColor=#e1955f;" parent="1" source="10" target="cPwut-dSBvQ5seL-pgIg-51" edge="1">
          <mxGeometry width="50" height="50" relative="1" as="geometry">
            <mxPoint x="-22" y="526" as="sourcePoint" />
            <mxPoint x="-121" y="421" as="targetPoint" />
          </mxGeometry>
        </mxCell>
        <mxCell id="k8WTQUBpfuYt5oGiJ2gu-13" value="&lt;span style=&quot;font-size: 16px;&quot;&gt;View Item&lt;br&gt;&lt;/span&gt;" style="ellipse;whiteSpace=wrap;html=1;strokeColor=#217893;" parent="1" vertex="1">
          <mxGeometry x="550" y="374" width="132" height="61" as="geometry" />
        </mxCell>
        <mxCell id="k8WTQUBpfuYt5oGiJ2gu-15" value="" style="endArrow=classic;html=1;rounded=0;exitX=1;exitY=0.462;exitDx=0;exitDy=0;exitPerimeter=0;strokeColor=#e1955f;entryX=0;entryY=0.5;entryDx=0;entryDy=0;" parent="1" source="FPNfaOGOEIjZuPGmD0JC-3" target="k8WTQUBpfuYt5oGiJ2gu-13" edge="1">
          <mxGeometry width="50" height="50" relative="1" as="geometry">
            <mxPoint x="440" y="426" as="sourcePoint" />
            <mxPoint x="515" y="404" as="targetPoint" />
            <Array as="points" />
          </mxGeometry>
        </mxCell>
        <mxCell id="k8WTQUBpfuYt5oGiJ2gu-16" value="" style="endArrow=classic;html=1;rounded=0;exitX=1;exitY=1;exitDx=0;exitDy=0;strokeColor=#e1955f;" parent="1" source="k8WTQUBpfuYt5oGiJ2gu-13" target="FPNfaOGOEIjZuPGmD0JC-53" edge="1">
          <mxGeometry width="50" height="50" relative="1" as="geometry">
            <mxPoint x="671" y="517" as="sourcePoint" />
            <mxPoint x="792" y="550" as="targetPoint" />
            <Array as="points" />
          </mxGeometry>
        </mxCell>
        <mxCell id="k8WTQUBpfuYt5oGiJ2gu-19" value="&lt;span style=&quot;font-size: 16px;&quot;&gt;Buy Item&lt;br&gt;&lt;/span&gt;" style="ellipse;whiteSpace=wrap;html=1;strokeColor=#217893;" parent="1" vertex="1">
          <mxGeometry x="528" y="517" width="132" height="58" as="geometry" />
        </mxCell>
        <mxCell id="k8WTQUBpfuYt5oGiJ2gu-25" value="&lt;span style=&quot;font-size: 16px;&quot;&gt;Cancel Item&lt;br&gt;&lt;/span&gt;" style="ellipse;whiteSpace=wrap;html=1;strokeColor=#217893;" parent="1" vertex="1">
          <mxGeometry x="494.5" y="579.25" width="121" height="58.75" as="geometry" />
        </mxCell>
        <mxCell id="k8WTQUBpfuYt5oGiJ2gu-26" value="" style="endArrow=classic;html=1;rounded=0;exitX=0;exitY=0;exitDx=0;exitDy=0;entryX=0.855;entryY=1;entryDx=0;entryDy=-4.35;entryPerimeter=0;strokeColor=#e1955f;" parent="1" source="k8WTQUBpfuYt5oGiJ2gu-25" target="FPNfaOGOEIjZuPGmD0JC-3" edge="1">
          <mxGeometry width="50" height="50" relative="1" as="geometry">
            <mxPoint x="460" y="342" as="sourcePoint" />
            <mxPoint x="396" y="396" as="targetPoint" />
            <Array as="points" />
          </mxGeometry>
        </mxCell>
        <mxCell id="k8WTQUBpfuYt5oGiJ2gu-29" value="" style="endArrow=classic;html=1;rounded=0;exitX=0;exitY=0.75;exitDx=0;exitDy=0;entryX=1;entryY=0.5;entryDx=0;entryDy=0;strokeColor=#e1955f;" parent="1" source="FPNfaOGOEIjZuPGmD0JC-53" target="k8WTQUBpfuYt5oGiJ2gu-25" edge="1">
          <mxGeometry width="50" height="50" relative="1" as="geometry">
            <mxPoint x="460" y="342" as="sourcePoint" />
            <mxPoint x="396" y="396" as="targetPoint" />
            <Array as="points" />
          </mxGeometry>
        </mxCell>
        <mxCell id="k8WTQUBpfuYt5oGiJ2gu-30" value="" style="endArrow=classic;html=1;rounded=0;exitX=0.25;exitY=0;exitDx=0;exitDy=0;entryX=1;entryY=1;entryDx=0;entryDy=0;strokeColor=#e1955f;" parent="1" source="FPNfaOGOEIjZuPGmD0JC-53" target="FPNfaOGOEIjZuPGmD0JC-50" edge="1">
          <mxGeometry width="50" height="50" relative="1" as="geometry">
            <mxPoint x="460" y="342" as="sourcePoint" />
            <mxPoint x="396" y="396" as="targetPoint" />
            <Array as="points" />
          </mxGeometry>
        </mxCell>
        <mxCell id="k8WTQUBpfuYt5oGiJ2gu-31" value="" style="endArrow=classic;html=1;rounded=0;exitX=0;exitY=0.5;exitDx=0;exitDy=0;strokeColor=#e1955f;entryX=0.997;entryY=0.705;entryDx=0;entryDy=0;entryPerimeter=0;" parent="1" source="FPNfaOGOEIjZuPGmD0JC-50" target="FPNfaOGOEIjZuPGmD0JC-3" edge="1">
          <mxGeometry width="50" height="50" relative="1" as="geometry">
            <mxPoint x="712" y="693" as="sourcePoint" />
            <mxPoint x="641" y="584" as="targetPoint" />
            <Array as="points" />
          </mxGeometry>
        </mxCell>
        <mxCell id="k8WTQUBpfuYt5oGiJ2gu-32" value="" style="endArrow=classic;html=1;rounded=0;exitX=0;exitY=0.25;exitDx=0;exitDy=0;entryX=1;entryY=0.5;entryDx=0;entryDy=0;strokeColor=#e1955f;" parent="1" source="FPNfaOGOEIjZuPGmD0JC-53" target="k8WTQUBpfuYt5oGiJ2gu-19" edge="1">
          <mxGeometry width="50" height="50" relative="1" as="geometry">
            <mxPoint x="712" y="693" as="sourcePoint" />
            <mxPoint x="641" y="584" as="targetPoint" />
            <Array as="points" />
          </mxGeometry>
        </mxCell>
        <mxCell id="k8WTQUBpfuYt5oGiJ2gu-33" value="" style="endArrow=classic;html=1;rounded=0;exitX=0;exitY=0.5;exitDx=0;exitDy=0;entryX=0.941;entryY=0.921;entryDx=0;entryDy=0;strokeColor=#e1955f;entryPerimeter=0;" parent="1" source="k8WTQUBpfuYt5oGiJ2gu-19" target="FPNfaOGOEIjZuPGmD0JC-3" edge="1">
          <mxGeometry width="50" height="50" relative="1" as="geometry">
            <mxPoint x="682" y="707" as="sourcePoint" />
            <mxPoint x="583" y="638" as="targetPoint" />
            <Array as="points" />
          </mxGeometry>
        </mxCell>
        <mxCell id="14" value="New User Registration&lt;br&gt;Form" style="rounded=0;whiteSpace=wrap;html=1;fontSize=16;strokeColor=default;fillColor=#2EADCC;" parent="1" vertex="1">
          <mxGeometry x="44" y="22" width="120" height="60" as="geometry" />
        </mxCell>
        <mxCell id="15" value="New Item Form" style="rounded=0;whiteSpace=wrap;html=1;fontSize=16;strokeColor=#217893;fillColor=#2CA4C2;" parent="1" vertex="1">
          <mxGeometry x="606" y="55" width="120" height="60" as="geometry" />
        </mxCell>
        <mxCell id="17" value="&lt;span style=&quot;font-size: 16px;&quot;&gt;Main Menu&lt;/span&gt;" style="ellipse;whiteSpace=wrap;html=1;strokeColor=#217893;" parent="1" vertex="1">
          <mxGeometry x="357" y="176" width="127" height="64.5" as="geometry" />
        </mxCell>
        <mxCell id="18" value="" style="endArrow=classic;html=1;rounded=0;entryX=0.5;entryY=1;entryDx=0;entryDy=0;strokeColor=#e1955f;exitX=0.626;exitY=0.013;exitDx=0;exitDy=0;exitPerimeter=0;" parent="1" source="FPNfaOGOEIjZuPGmD0JC-3" target="17" edge="1">
          <mxGeometry width="50" height="50" relative="1" as="geometry">
            <mxPoint x="319" y="374" as="sourcePoint" />
            <mxPoint x="406.9960000000001" y="308.9960000000001" as="targetPoint" />
            <Array as="points" />
          </mxGeometry>
        </mxCell>
        <mxCell id="19" value="Main Menu" style="rounded=0;whiteSpace=wrap;html=1;fontSize=16;strokeColor=#217893;fillColor=#2CA4C2;" parent="1" vertex="1">
          <mxGeometry x="430" y="22" width="120" height="60" as="geometry" />
        </mxCell>
        <mxCell id="20" value="" style="endArrow=classic;html=1;rounded=0;entryX=0.5;entryY=1;entryDx=0;entryDy=0;exitX=0.5;exitY=0;exitDx=0;exitDy=0;labelBackgroundColor=#fa8a3e;labelBorderColor=#fa8a3e;strokeColor=#e1955f;" parent="1" source="17" target="19" edge="1">
          <mxGeometry width="50" height="50" relative="1" as="geometry">
            <mxPoint x="308" y="271" as="sourcePoint" />
            <mxPoint x="209" y="166" as="targetPoint" />
          </mxGeometry>
        </mxCell>
        <mxCell id="cPwut-dSBvQ5seL-pgIg-20" value="Search Results" style="rounded=0;whiteSpace=wrap;html=1;fontSize=16;labelBackgroundColor=none;strokeColor=#217893;fillColor=#2CA4C2;" parent="1" vertex="1">
          <mxGeometry x="726" y="325" width="165" height="60" as="geometry" />
        </mxCell>
        <mxCell id="cPwut-dSBvQ5seL-pgIg-21" value="" style="endArrow=classic;html=1;rounded=0;exitX=0.5;exitY=1;exitDx=0;exitDy=0;entryX=1;entryY=0;entryDx=0;entryDy=0;strokeColor=#e1955f;" parent="1" source="FPNfaOGOEIjZuPGmD0JC-48" target="FPNfaOGOEIjZuPGmD0JC-45" edge="1">
          <mxGeometry width="50" height="50" relative="1" as="geometry">
            <mxPoint x="566" y="148" as="sourcePoint" />
            <mxPoint x="500" y="272" as="targetPoint" />
            <Array as="points" />
          </mxGeometry>
        </mxCell>
        <mxCell id="cPwut-dSBvQ5seL-pgIg-22" value="" style="endArrow=classic;html=1;rounded=0;exitX=1;exitY=0.5;exitDx=0;exitDy=0;strokeColor=#e1955f;entryX=0;entryY=0.5;entryDx=0;entryDy=0;" parent="1" source="FPNfaOGOEIjZuPGmD0JC-45" target="cPwut-dSBvQ5seL-pgIg-20" edge="1">
          <mxGeometry width="50" height="50" relative="1" as="geometry">
            <mxPoint x="440" y="426" as="sourcePoint" />
            <mxPoint x="515" y="404" as="targetPoint" />
            <Array as="points" />
          </mxGeometry>
        </mxCell>
        <mxCell id="cPwut-dSBvQ5seL-pgIg-24" value="Login Form" style="rounded=0;whiteSpace=wrap;html=1;fontSize=16;labelBackgroundColor=none;fillColor=#2CA4C2;strokeColor=#217893;" parent="1" vertex="1">
          <mxGeometry x="237" y="-11" width="120" height="60" as="geometry" />
        </mxCell>
        <mxCell id="cPwut-dSBvQ5seL-pgIg-26" value="&lt;span style=&quot;font-size: 16px;&quot;&gt;Add/Del Rating&lt;br&gt;&lt;/span&gt;" style="ellipse;whiteSpace=wrap;html=1;strokeColor=#217893;" parent="1" vertex="1">
          <mxGeometry x="418" y="627" width="121" height="58.51" as="geometry" />
        </mxCell>
        <mxCell id="cPwut-dSBvQ5seL-pgIg-29" value="" style="endArrow=classic;html=1;rounded=0;entryX=0;entryY=0.25;entryDx=0;entryDy=0;exitX=0.5;exitY=1;exitDx=0;exitDy=0;strokeColor=#e1955f;" parent="1" source="FPNfaOGOEIjZuPGmD0JC-60" target="FPNfaOGOEIjZuPGmD0JC-61" edge="1">
          <mxGeometry width="50" height="50" relative="1" as="geometry">
            <mxPoint x="298.7930000000001" y="494.9999999999998" as="sourcePoint" />
            <mxPoint x="146" y="571" as="targetPoint" />
            <Array as="points" />
          </mxGeometry>
        </mxCell>
        <mxCell id="cPwut-dSBvQ5seL-pgIg-30" value="" style="endArrow=classic;startArrow=classic;html=1;rounded=0;exitX=0.5;exitY=0;exitDx=0;exitDy=0;strokeColor=#e1955f;entryX=0.715;entryY=1.005;entryDx=0;entryDy=0;entryPerimeter=0;" parent="1" source="cPwut-dSBvQ5seL-pgIg-26" target="FPNfaOGOEIjZuPGmD0JC-3" edge="1">
          <mxGeometry width="50" height="50" relative="1" as="geometry">
            <mxPoint x="187" y="623" as="sourcePoint" />
            <mxPoint x="341" y="484" as="targetPoint" />
          </mxGeometry>
        </mxCell>
        <mxCell id="cPwut-dSBvQ5seL-pgIg-33" value="&lt;span style=&quot;font-size: 16px;&quot;&gt;User Report&lt;/span&gt;" style="ellipse;whiteSpace=wrap;html=1;strokeColor=#217893;" parent="1" vertex="1">
          <mxGeometry x="-22" y="344" width="132" height="52" as="geometry" />
        </mxCell>
        <mxCell id="cPwut-dSBvQ5seL-pgIg-34" value="&lt;span style=&quot;font-size: 16px;&quot;&gt;Top Rated Items Report&lt;/span&gt;" style="ellipse;whiteSpace=wrap;html=1;strokeColor=#217893;" parent="1" vertex="1">
          <mxGeometry x="-22" y="404.5" width="132" height="63" as="geometry" />
        </mxCell>
        <mxCell id="cPwut-dSBvQ5seL-pgIg-35" value="&lt;span style=&quot;font-size: 16px;&quot;&gt;Auction Statistics Report&lt;/span&gt;" style="ellipse;whiteSpace=wrap;html=1;strokeColor=#217893;" parent="1" vertex="1">
          <mxGeometry x="-11" y="484" width="143" height="66" as="geometry" />
        </mxCell>
        <mxCell id="cPwut-dSBvQ5seL-pgIg-40" value="&lt;span style=&quot;font-size: 16px;&quot;&gt;Canceled Auction Details&lt;/span&gt;" style="ellipse;whiteSpace=wrap;html=1;strokeColor=#217893;" parent="1" vertex="1">
          <mxGeometry x="11" y="561" width="132" height="66" as="geometry" />
        </mxCell>
        <mxCell id="cPwut-dSBvQ5seL-pgIg-43" value="" style="endArrow=classic;html=1;rounded=0;entryX=1;entryY=0.5;entryDx=0;entryDy=0;exitX=0;exitY=0;exitDx=0;exitDy=0;labelBackgroundColor=#fa8a3e;labelBorderColor=#fa8a3e;strokeColor=#e1955f;" parent="1" source="cPwut-dSBvQ5seL-pgIg-33" target="cPwut-dSBvQ5seL-pgIg-53" edge="1">
          <mxGeometry width="50" height="50" relative="1" as="geometry">
            <mxPoint x="33" y="313" as="sourcePoint" />
            <mxPoint x="-166" y="416" as="targetPoint" />
          </mxGeometry>
        </mxCell>
        <mxCell id="cPwut-dSBvQ5seL-pgIg-44" value="" style="endArrow=classic;html=1;rounded=0;exitX=0;exitY=0.5;exitDx=0;exitDy=0;labelBackgroundColor=#fa8a3e;labelBorderColor=#fa8a3e;strokeColor=#e1955f;entryX=1;entryY=0.5;entryDx=0;entryDy=0;" parent="1" source="cPwut-dSBvQ5seL-pgIg-34" target="cPwut-dSBvQ5seL-pgIg-54" edge="1">
          <mxGeometry width="50" height="50" relative="1" as="geometry">
            <mxPoint x="-26" y="384" as="sourcePoint" />
            <mxPoint x="-138" y="334" as="targetPoint" />
          </mxGeometry>
        </mxCell>
        <mxCell id="cPwut-dSBvQ5seL-pgIg-45" value="" style="endArrow=classic;html=1;rounded=0;entryX=1;entryY=0.5;entryDx=0;entryDy=0;exitX=0;exitY=0.5;exitDx=0;exitDy=0;labelBackgroundColor=#fa8a3e;labelBorderColor=#fa8a3e;strokeColor=#e1955f;" parent="1" source="cPwut-dSBvQ5seL-pgIg-35" target="12" edge="1">
          <mxGeometry width="50" height="50" relative="1" as="geometry">
            <mxPoint x="-22" y="450" as="sourcePoint" />
            <mxPoint x="-166" y="416" as="targetPoint" />
          </mxGeometry>
        </mxCell>
        <mxCell id="cPwut-dSBvQ5seL-pgIg-46" value="" style="endArrow=classic;html=1;rounded=0;entryX=1;entryY=0.5;entryDx=0;entryDy=0;exitX=0;exitY=0.5;exitDx=0;exitDy=0;labelBackgroundColor=#fa8a3e;labelBorderColor=#fa8a3e;strokeColor=#e1955f;" parent="1" source="cPwut-dSBvQ5seL-pgIg-40" target="cPwut-dSBvQ5seL-pgIg-55" edge="1">
          <mxGeometry width="50" height="50" relative="1" as="geometry">
            <mxPoint x="-11" y="528" as="sourcePoint" />
            <mxPoint x="-166" y="431" as="targetPoint" />
          </mxGeometry>
        </mxCell>
        <mxCell id="cPwut-dSBvQ5seL-pgIg-47" value="" style="endArrow=classic;html=1;rounded=0;entryX=1;entryY=0;entryDx=0;entryDy=0;exitX=0;exitY=1;exitDx=0;exitDy=-15;exitPerimeter=0;strokeColor=#e1955f;" parent="1" source="FPNfaOGOEIjZuPGmD0JC-3" target="cPwut-dSBvQ5seL-pgIg-40" edge="1">
          <mxGeometry width="50" height="50" relative="1" as="geometry">
            <mxPoint x="261" y="491" as="sourcePoint" />
            <mxPoint x="159" y="638" as="targetPoint" />
            <Array as="points" />
          </mxGeometry>
        </mxCell>
        <mxCell id="cPwut-dSBvQ5seL-pgIg-48" value="" style="endArrow=classic;html=1;rounded=0;entryX=0.957;entryY=0.304;entryDx=0;entryDy=0;exitX=-0.005;exitY=0.715;exitDx=0;exitDy=0;exitPerimeter=0;strokeColor=#e1955f;entryPerimeter=0;" parent="1" source="FPNfaOGOEIjZuPGmD0JC-3" target="cPwut-dSBvQ5seL-pgIg-35" edge="1">
          <mxGeometry width="50" height="50" relative="1" as="geometry">
            <mxPoint x="272" y="502" as="sourcePoint" />
            <mxPoint x="170" y="649" as="targetPoint" />
            <Array as="points" />
          </mxGeometry>
        </mxCell>
        <mxCell id="cPwut-dSBvQ5seL-pgIg-49" value="" style="endArrow=classic;html=1;rounded=0;entryX=1;entryY=0.5;entryDx=0;entryDy=0;exitX=0;exitY=0;exitDx=0;exitDy=60;exitPerimeter=0;strokeColor=#e1955f;" parent="1" source="FPNfaOGOEIjZuPGmD0JC-3" target="cPwut-dSBvQ5seL-pgIg-34" edge="1">
          <mxGeometry width="50" height="50" relative="1" as="geometry">
            <mxPoint x="230" y="473" as="sourcePoint" />
            <mxPoint x="132" y="528" as="targetPoint" />
            <Array as="points" />
          </mxGeometry>
        </mxCell>
        <mxCell id="cPwut-dSBvQ5seL-pgIg-50" value="" style="endArrow=classic;html=1;rounded=0;entryX=1;entryY=0.5;entryDx=0;entryDy=0;exitX=0;exitY=0;exitDx=0;exitDy=30;exitPerimeter=0;strokeColor=#e1955f;" parent="1" source="FPNfaOGOEIjZuPGmD0JC-3" target="cPwut-dSBvQ5seL-pgIg-33" edge="1">
          <mxGeometry width="50" height="50" relative="1" as="geometry">
            <mxPoint x="231" y="456" as="sourcePoint" />
            <mxPoint x="121" y="447" as="targetPoint" />
            <Array as="points" />
          </mxGeometry>
        </mxCell>
        <mxCell id="cPwut-dSBvQ5seL-pgIg-51" value="Category Report" style="rounded=0;whiteSpace=wrap;html=1;fontSize=16;strokeColor=#217893;fillColor=#2CA4C2;" parent="1" vertex="1">
          <mxGeometry x="-120" y="99" width="120" height="60" as="geometry" />
        </mxCell>
        <mxCell id="cPwut-dSBvQ5seL-pgIg-53" value="User Report" style="rounded=0;whiteSpace=wrap;html=1;fontSize=16;strokeColor=#217893;fillColor=#2CA4C2;" parent="1" vertex="1">
          <mxGeometry x="-220" y="220" width="120" height="60" as="geometry" />
        </mxCell>
        <mxCell id="cPwut-dSBvQ5seL-pgIg-54" value="Top Rated Items Report" style="rounded=0;whiteSpace=wrap;html=1;fontSize=16;strokeColor=#217893;fillColor=#2CA4C2;" parent="1" vertex="1">
          <mxGeometry x="-253" y="363" width="120" height="60" as="geometry" />
        </mxCell>
        <mxCell id="cPwut-dSBvQ5seL-pgIg-55" value="Canceled Auction Details" style="rounded=0;whiteSpace=wrap;html=1;fontSize=16;strokeColor=#217893;fillColor=#2CA4C2;" parent="1" vertex="1">
          <mxGeometry x="-209" y="622" width="120" height="60" as="geometry" />
        </mxCell>
        <mxCell id="yjljsIP2LHBEKEnz2njm-20" value="Phase 1 IFD |&amp;nbsp; CS6400 - Spring 2024 | Team 008" style="text;html=1;align=center;verticalAlign=middle;whiteSpace=wrap;rounded=0;fontSize=25;" vertex="1" parent="1">
          <mxGeometry x="33" y="-77" width="561" height="30" as="geometry" />
        </mxCell>
      </root>
    </mxGraphModel>
  </diagram>
</mxfile>
